<svg width="41" height="41" viewBox="0 0 41 41" fill="none" xmlns="http://www.w3.org/2000/svg">
<path d="M38.899 2.21382C37.9236 1.21978 36.48 0.852123 35.1339 1.24118L3.74559 10.2848C2.32541 10.6778 1.3188 11.8002 1.04764 13.2242C0.770625 14.6753 1.73822 16.5195 3.00234 17.2898L12.8168 23.2657C13.8234 23.8804 15.1227 23.7268 15.9556 22.8942L27.1942 11.6874C27.7599 11.1018 28.6963 11.1018 29.262 11.6874C29.8278 12.2496 29.8278 13.1658 29.262 13.7494L18.004 24.9562C17.169 25.7888 17.013 27.0804 17.6275 28.0862L23.6242 37.9099C24.3265 39.0751 25.536 39.7384 26.8626 39.7384C27.0186 39.7384 27.1942 39.7384 27.3503 39.717C28.8719 39.5244 30.0814 38.4915 30.5301 37.0325L39.8354 5.96823C40.245 4.64543 39.8744 3.20592 38.899 2.21382" stroke="#FEFEFE" stroke-width="1.5"/>
<path d="M2.02637 29.5555L6.33866 25.2432" stroke="#FEFEFE" stroke-width="2" stroke-linecap="round"/>
<path d="M9.41895 32.0196L13.7312 27.7073" stroke="#FEFEFE" stroke-width="2" stroke-linecap="round"/>
<path d="M11.2668 39.4121L15.5791 35.0999" stroke="#FEFEFE" stroke-width="2" stroke-linecap="round"/>
</svg>
