<svg width="44" height="32" viewBox="0 0 44 32" fill="none" xmlns="http://www.w3.org/2000/svg">
<path d="M12.2222 0.0498047H7.33333C3.28957 0.0498047 0 3.11002 0 6.87183V11.4199C0 15.1817 3.28957 18.2419 7.33333 18.2419H12.2222C13.0071 18.2419 13.7492 18.0965 14.4587 17.8829C13.4731 23.2388 8.48075 27.3379 2.44444 27.3379C1.09332 27.3379 0 28.355 0 29.6119C0 30.8689 1.09332 31.8859 2.44444 31.8859C11.8785 31.8859 19.5556 24.7442 19.5556 15.9679V6.87183C19.5556 3.11002 16.266 0.0498047 12.2222 0.0498047ZM36.6667 0.0498047H31.7778C27.734 0.0498047 24.4444 3.11002 24.4444 6.87183V11.4199C24.4444 15.1817 27.734 18.2419 31.7778 18.2419H36.6667C37.4515 18.2419 38.1936 18.0965 38.9032 17.8829C37.9176 23.2388 32.9252 27.3379 26.8889 27.3379C25.5378 27.3379 24.4444 28.355 24.4444 29.6119C24.4444 30.8689 25.5378 31.8859 26.8889 31.8859C36.323 31.8859 44 24.7442 44 15.9679V6.87183C44 3.11002 40.7104 0.0498047 36.6667 0.0498047Z" fill="#31B88A"/>
</svg>
