<svg
              width="36"
              height="36"
              viewBox="0 0 36 36"
              fill="none"
              xmlns="http://www.w3.org/2000/svg"
            >
              <path
                d="M19.5047 24.6797L16.8047 32.0063C16.7248 32.2216 16.5809 32.4073 16.3924 32.5384C16.2038 32.6695 15.9797 32.7398 15.75 32.7398C15.5204 32.7398 15.2962 32.6695 15.1077 32.5384C14.9191 32.4073 14.7752 32.2216 14.6953 32.0063L11.9953 24.6797C11.9384 24.5251 11.8485 24.3846 11.732 24.2681C11.6154 24.1516 11.475 24.0617 11.3203 24.0047L3.99377 21.3047C3.77847 21.2248 3.59279 21.0809 3.46166 20.8924C3.33054 20.7038 3.26025 20.4797 3.26025 20.25C3.26025 20.0204 3.33054 19.7962 3.46166 19.6077C3.59279 19.4191 3.77847 19.2752 3.99377 19.1953L11.3203 16.4953C11.475 16.4384 11.6154 16.3485 11.732 16.232C11.8485 16.1154 11.9384 15.975 11.9953 15.8203L14.6953 8.49377C14.7752 8.27847 14.9191 8.09279 15.1077 7.96166C15.2962 7.83054 15.5204 7.76025 15.75 7.76025C15.9797 7.76025 16.2038 7.83054 16.3924 7.96166C16.5809 8.09279 16.7248 8.27847 16.8047 8.49377L19.5047 15.8203C19.5617 15.975 19.6516 16.1154 19.7681 16.232C19.8846 16.3485 20.0251 16.4384 20.1797 16.4953L27.5063 19.1953C27.7216 19.2752 27.9073 19.4191 28.0384 19.6077C28.1695 19.7962 28.2398 20.0204 28.2398 20.25C28.2398 20.4797 28.1695 20.7038 28.0384 20.8924C27.9073 21.0809 27.7216 21.2248 27.5063 21.3047L20.1797 24.0047C20.0251 24.0617 19.8846 24.1516 19.7681 24.2681C19.6516 24.3846 19.5617 24.5251 19.5047 24.6797Z"
                fill="#31B88A"
              />
              <path
                d="M24.75 2.25V9"
                stroke="#31B88A"
                stroke-width="2.25"
                stroke-linecap="round"
                stroke-linejoin="round"
              />
              <path
                d="M28.125 5.625H21.375"
                stroke="#31B88A"
                stroke-width="2.25"
                stroke-linecap="round"
                stroke-linejoin="round"
              />
              <path
                d="M31.5 10.125V14.625"
                stroke="#31B88A"
                stroke-width="2.25"
                stroke-linecap="round"
                stroke-linejoin="round"
              />
              <path
                d="M33.75 12.375H29.25"
                stroke="#31B88A"
                stroke-width="2.25"
                stroke-linecap="round"
                stroke-linejoin="round"
              />
            </svg>