<svg width="50" height="50" viewBox="0 0 50 50" fill="none" xmlns="http://www.w3.org/2000/svg">
<path d="M30.991 29.426L29.5454 40.3889C29.5088 40.6524 29.3925 40.8984 29.2121 41.0938C29.0317 41.2893 28.7957 41.4248 28.536 41.4823C28.2763 41.5397 28.0052 41.5163 27.7592 41.4152C27.5131 41.314 27.304 41.14 27.1597 40.9165L21.2258 31.5856C21.1227 31.425 20.986 31.2886 20.825 31.186C20.6641 31.0833 20.4828 31.0168 20.2936 30.9911L9.33067 29.5454C9.06719 29.5089 8.82119 29.3926 8.62574 29.2121C8.43028 29.0317 8.29473 28.7958 8.23728 28.5361C8.17984 28.2763 8.20326 28.0052 8.3044 27.7592C8.40554 27.5132 8.57956 27.304 8.80306 27.1598L18.1339 21.2259C18.2946 21.1228 18.4309 20.986 18.5336 20.8251C18.6362 20.6641 18.7027 20.4828 18.7285 20.2936L20.1742 9.33071C20.2107 9.06723 20.327 8.82123 20.5074 8.62578C20.6879 8.43032 20.9238 8.29477 21.1835 8.23733C21.4432 8.17988 21.7143 8.20331 21.9604 8.30444C22.2064 8.40558 22.4156 8.5796 22.5598 8.8031L28.4937 18.134C28.5968 18.2946 28.7336 18.431 28.8945 18.5336C29.0555 18.6363 29.2368 18.7028 29.4259 18.7285L40.3889 20.1742C40.6523 20.2107 40.8983 20.327 41.0938 20.5075C41.2893 20.6879 41.4248 20.9238 41.4822 21.1836C41.5397 21.4433 41.5163 21.7144 41.4151 21.9604C41.314 22.2064 41.14 22.4156 40.9165 22.5598L31.5856 28.4937C31.425 28.5969 31.2886 28.7336 31.186 28.8946C31.0833 29.0555 31.0168 29.2368 30.991 29.426Z" fill="#FFC221"/>
</svg>
